<svg width="180" height="180" viewBox="0 0 180 180" fill="none" xmlns="http://www.w3.org/2000/svg">
  <rect width="180" height="180" rx="20" fill="#FF6B35"/>
  <circle cx="90" cy="90" r="60" fill="white"/>
  <path d="M90 45C72.3 45 58 59.3 58 77C58 94.7 72.3 109 90 109C107.7 109 122 94.7 122 77C122 59.3 107.7 45 90 45ZM90 93C81.2 93 74 85.8 74 77C74 68.2 81.2 61 90 61C98.8 61 106 68.2 106 77C106 85.8 98.8 93 90 93Z" fill="#FF6B35"/>
  <path d="M90 115C81.2 115 74 122.2 74 131C74 139.8 81.2 147 90 147C98.8 147 106 139.8 106 131C106 122.2 98.8 115 90 115Z" fill="#FF6B35"/>
  <circle cx="70" cy="65" r="8" fill="#FFB800"/>
  <circle cx="110" cy="65" r="8" fill="#FFB800"/>
</svg>