<svg width="192" height="192" viewBox="0 0 192 192" fill="none" xmlns="http://www.w3.org/2000/svg">
  <rect width="192" height="192" rx="24" fill="#FF6B35"/>
  <circle cx="96" cy="96" r="64" fill="white"/>
  <path d="M96 48C78.3 48 64 62.3 64 80C64 97.7 78.3 112 96 112C113.7 112 128 97.7 128 80C128 62.3 113.7 48 96 48ZM96 96C87.2 96 80 88.8 80 80C80 71.2 87.2 64 96 64C104.8 64 112 71.2 112 80C112 88.8 104.8 96 96 96Z" fill="#FF6B35"/>
  <path d="M96 120C87.2 120 80 127.2 80 136C80 144.8 87.2 152 96 152C104.8 152 112 144.8 112 136C112 127.2 104.8 120 96 120Z" fill="#FF6B35"/>
  <text x="96" y="175" text-anchor="middle" fill="white" font-family="Arial, sans-serif" font-size="14" font-weight="bold">PDD</text>
</svg>